P3
5 5 255
 255 0 0  255 0 0  255 0 0  255 0 0  255 0 0 
 45 0 29  45 0 29  45 0 29  45 0 29  45 0 29 
 45 3 21  45 3 21  45 3 21  45 3 21  45 3 21 
 90 89 76  90 89 76  90 89 76  90 89 76  90 89 76 
 100 98 76  100 98 76  100 98 76  100 98 76  100 98 76 
